<svg width="140" height="43" viewBox="0 0 140 43" fill="none" xmlns="http://www.w3.org/2000/svg">
<path d="M40.5023 2.06383C39.1779 0.742299 37.3824 0 35.5105 0C33.6385 0 31.8431 0.742299 30.5186 2.06383L2.06363 30.4892C1.40809 31.1458 0.888446 31.9251 0.534369 32.7824C0.180292 33.6397 -0.00128435 34.5582 6.83806e-06 35.4856C0.00261451 37.3586 0.749923 39.1538 2.07753 40.4764C3.40514 41.7989 5.2043 42.5405 7.07922 42.5378C8.95414 42.5352 10.7512 41.7887 12.0752 40.4625L18.8051 33.7451L16.3078 31.2504L9.55558 37.9678C8.89178 38.6309 7.99147 39.0034 7.0527 39.0034C6.11394 39.0034 5.21363 38.6309 4.54982 37.9678C3.88602 37.3046 3.5131 36.4053 3.5131 35.4675C3.5131 34.5297 3.88602 33.6303 4.54982 32.9672L33.0159 4.55855C33.6797 3.89544 34.58 3.5229 35.5188 3.5229C36.4576 3.5229 37.3579 3.89544 38.0217 4.55855C38.6855 5.22166 39.0584 6.12104 39.0584 7.05882C39.0584 7.99661 38.6855 8.89598 38.0217 9.5591L26.3416 21.227L28.8389 23.7218L40.519 12.0538C41.8421 10.7264 42.5835 8.92858 42.5804 7.05537C42.5773 5.18217 41.8298 3.38682 40.5023 2.06383Z" fill="#002BDC"/>
<path d="M7.08612 3.52035C7.54921 3.51958 8.00786 3.61051 8.43556 3.7879C8.86325 3.96528 9.25151 4.2256 9.57788 4.5538L18.8107 13.7715L21.2969 11.2823L12.0752 2.06463C10.7535 0.743564 8.96057 0.00110109 7.09087 0.000580108C5.22117 5.91307e-05 3.42784 0.741522 2.10539 2.06186C0.782943 3.38219 0.0397064 5.17324 0.0391848 7.04099C0.0386633 8.90875 0.780899 10.7002 2.10261 12.0213L8.82145 18.7331L11.3132 16.244L4.59437 9.53212C4.10189 9.03949 3.76659 8.41212 3.63081 7.72925C3.49503 7.04638 3.56485 6.33863 3.83147 5.69537C4.09809 5.05212 4.54953 4.50221 5.1288 4.1151C5.70807 3.72798 6.38918 3.52102 7.08612 3.52035ZM40.4579 30.44L31.2806 21.2501L28.8056 23.717L37.9828 32.9291C38.6466 33.5922 39.0195 34.4916 39.0195 35.4294C39.0195 36.3672 38.6466 37.2666 37.9828 37.9297C37.319 38.5928 36.4187 38.9653 35.4799 38.9653C34.5411 38.9653 33.6408 38.5928 32.977 37.9297L13.8217 18.7498L11.3299 21.239L30.5075 40.3966C31.8292 41.7177 33.6221 42.4601 35.4918 42.4607C37.3615 42.4612 39.1549 41.7197 40.4773 40.3994C41.7998 39.0791 42.543 37.288 42.5435 35.4203C42.5441 33.5525 41.8018 31.761 40.4801 30.44H40.4579Z" fill="#00C9E4"/>
<path d="M60.5198 13.9215V15.8495C59.4964 14.4882 58.0003 13.9215 56.1593 13.9215C55.2854 13.8842 54.4137 14.0346 53.603 14.3624C52.7923 14.6901 52.0613 15.1878 51.4594 15.8217C50.2088 17.1527 49.5385 18.9254 49.5961 20.75C49.5627 21.6355 49.7097 22.5186 50.028 23.3457C50.3464 24.1727 50.8296 24.9266 51.4483 25.5616C52.7275 26.8951 54.3182 27.8563 56.2204 27.8563C57.0717 27.8392 57.9064 27.6184 58.6545 27.2123C59.4026 26.8063 60.0422 26.2269 60.5198 25.5228V26.9729C60.5471 27.4238 60.4773 27.8754 60.3152 28.2971C60.153 28.7188 59.9023 29.1009 59.5799 29.4176C58.8607 30.0223 57.9377 30.3303 56.9991 30.2788C55.3305 30.2788 54.1569 29.651 53.4784 28.3953L50.5194 30.0899C51.0956 31.146 51.983 31.9995 53.0612 32.5346C54.2581 33.0985 55.5706 33.3744 56.8934 33.3403C58.6897 33.3812 60.4434 32.7914 61.8491 31.6734C63.2229 30.5622 63.5177 29.0009 63.5177 26.9229V13.9215H60.5198ZM59.4575 23.3392C58.7156 24.0041 57.7539 24.3719 56.7572 24.3719C55.7604 24.3719 54.7988 24.0041 54.0568 23.3392C53.7051 22.9966 53.4289 22.5844 53.246 22.1289C53.0631 21.6735 52.9774 21.1849 52.9945 20.6944C52.9803 20.2085 53.0674 19.7249 53.2502 19.2744C53.4331 18.8239 53.7078 18.4163 54.0568 18.0775C54.7988 17.4125 55.7604 17.0448 56.7572 17.0448C57.7539 17.0448 58.7156 17.4125 59.4575 18.0775C59.8065 18.4163 60.0812 18.8239 60.2641 19.2744C60.447 19.7249 60.5341 20.2085 60.5198 20.6944C60.5369 21.1849 60.4513 21.6735 60.2683 22.1289C60.0854 22.5844 59.8092 22.9966 59.4575 23.3392Z" fill="black"/>
<path d="M77.9955 15.8606C77.48 15.2304 76.8258 14.7277 76.084 14.3913C75.3421 14.055 74.5326 13.8942 73.7184 13.9215C71.8384 13.9215 70.4424 14.4771 69.419 15.7661V6.95404H65.9539V27.8452H69.419V26.0228C70.4424 27.3285 71.8384 27.8452 73.7184 27.8452C74.5311 27.8777 75.3403 27.7215 76.0825 27.3889C76.8246 27.0563 77.4794 26.5564 77.9955 25.9283C79.2727 24.5676 79.962 22.7592 79.9144 20.8945C79.9602 19.0301 79.2711 17.2223 77.9955 15.8606ZM75.387 23.6392C75.1075 23.9661 74.7616 24.2297 74.3723 24.4127C73.9829 24.5957 73.559 24.6938 73.1288 24.7004C72.6363 24.7167 72.1458 24.6308 71.6882 24.4481C71.2306 24.2655 70.8159 23.99 70.4702 23.6392C70.1194 23.2803 69.8453 22.8538 69.6646 22.3858C69.4839 21.9178 69.4003 21.418 69.419 20.9167C69.4009 20.4146 69.4847 19.9141 69.6653 19.4453C69.846 18.9764 70.1198 18.5489 70.4702 18.1886C70.8169 17.8396 71.232 17.5657 71.6894 17.3841C72.1468 17.2025 72.6368 17.117 73.1288 17.1329C73.561 17.1242 73.9895 17.2149 74.381 17.3979C74.7726 17.581 75.1168 17.8515 75.387 18.1886C76.0792 18.9276 76.4597 19.9047 76.4493 20.9167C76.4644 21.4152 76.3781 21.9115 76.1955 22.3757C76.0129 22.8399 75.7378 23.2622 75.387 23.617V23.6392Z" fill="black"/>
<path d="M88.3129 20.7778L93.3187 13.9548H89.3753L86.3051 17.9997L83.4295 13.9548H79.4249L84.3473 20.7889L79.4194 27.8785H83.424L86.3384 23.5725L89.3975 27.8785H93.3632L88.3129 20.7778Z" fill="black"/>
<path d="M108.458 21.7723C107.885 21.1827 107.159 20.7634 106.361 20.5611L103.914 19.8888C103.177 19.7033 102.47 19.4113 101.817 19.022C101.556 18.8825 101.337 18.6741 101.185 18.4196C101.033 18.165 100.954 17.8738 100.955 17.5774C100.946 17.2607 101.024 16.9474 101.18 16.6714C101.336 16.3954 101.564 16.1669 101.84 16.0106C102.475 15.6286 103.206 15.4359 103.948 15.455C105.677 15.455 107.101 16.094 107.652 17.3608L109.22 16.494C108.803 15.6283 108.127 14.9137 107.285 14.4493C106.265 13.9516 105.138 13.7112 104.003 13.7492C102.732 13.6842 101.478 14.0612 100.455 14.816C100.021 15.1376 99.6701 15.5568 99.4295 16.0396C99.1889 16.5223 99.0656 17.0549 99.0698 17.5941C99.0529 18.0076 99.1201 18.4201 99.2673 18.8069C99.4145 19.1936 99.6387 19.5466 99.9263 19.8444C100.503 20.4163 101.221 20.8264 102.006 21.0334L104.459 21.7001C105.193 21.887 105.894 22.1829 106.539 22.578C106.802 22.7238 107.019 22.9376 107.17 23.1967C107.321 23.4558 107.399 23.7507 107.396 24.0504C107.417 24.3891 107.339 24.7267 107.172 25.0224C107.006 25.3181 106.757 25.5594 106.456 25.7172C105.736 26.0925 104.931 26.2744 104.12 26.2451C103.257 26.2692 102.403 26.0579 101.651 25.6339C100.989 25.2649 100.479 24.6746 100.21 23.967L98.6137 24.8671C99.0197 25.8189 99.727 26.6113 100.627 27.1229C101.688 27.7319 102.897 28.0339 104.12 27.9952C105.449 28.0475 106.758 27.6566 107.841 26.884C108.294 26.5643 108.661 26.1391 108.912 25.6453C109.163 25.1516 109.29 24.6041 109.282 24.0504C109.301 23.6353 109.238 23.2204 109.097 22.8295C108.956 22.4386 108.739 22.0794 108.458 21.7723Z" fill="black"/>
<path d="M129.672 9.34875C129.943 9.10553 130.26 8.92039 130.606 8.80475C130.951 8.68912 131.317 8.64546 131.679 8.67646V6.9596C131.084 6.92827 130.489 7.01527 129.927 7.21556C129.366 7.41585 128.85 7.72544 128.409 8.1264C127.391 8.98205 126.946 10.2211 126.946 11.9768V13.8937H124.66V15.6105H126.946V27.8341H128.721V15.6105H131.679V13.8937H128.721V11.9768C128.677 11.4959 128.739 11.0112 128.903 10.5571C129.068 10.1029 129.33 9.69041 129.672 9.34875Z" fill="black"/>
<path d="M140 15.6217V13.8937H137.019V10.4211H135.25V13.8937H133.026V15.6105H135.25V24.1726C135.25 25.7357 135.719 26.7932 136.657 27.3452C137.319 27.7341 138.326 27.8452 139.995 27.8397V26.2839C139.733 26.2839 138.943 26.2839 138.738 26.2284C138.264 26.2225 137.808 26.0515 137.447 25.745C137.114 25.2921 136.959 24.7322 137.013 24.1726V15.6217H140Z" fill="black"/>
<path d="M122.391 15.7884C121.03 14.4938 119.223 13.7717 117.344 13.7717C115.464 13.7717 113.657 14.4938 112.296 15.7884C111.62 16.4586 111.087 17.2595 110.73 18.1421C110.373 19.0247 110.2 19.9706 110.221 20.9222C110.199 21.874 110.372 22.8202 110.729 23.7029C111.085 24.5857 111.619 25.3865 112.296 26.0561C113.682 27.3013 115.48 27.9902 117.344 27.9902C119.207 27.9902 121.005 27.3013 122.391 26.0561C123.068 25.3862 123.6 24.5853 123.956 23.7025C124.312 22.8197 124.483 21.8736 124.46 20.9222C124.482 19.971 124.31 19.0252 123.954 18.1426C123.599 17.2599 123.067 16.4589 122.391 15.7884ZM121.128 24.7893C120.085 25.7161 118.737 26.228 117.341 26.228C115.944 26.228 114.597 25.7161 113.553 24.7893C113.047 24.2782 112.65 23.6702 112.385 23.0018C112.12 22.3335 111.994 21.6186 112.012 20.9C111.994 20.1815 112.12 19.4666 112.385 18.7982C112.65 18.1299 113.047 17.5218 113.553 17.0107C114.048 16.5091 114.637 16.1107 115.288 15.8388C115.938 15.5669 116.636 15.4269 117.341 15.4269C118.046 15.4269 118.744 15.5669 119.394 15.8388C120.044 16.1107 120.634 16.5091 121.128 17.0107C121.635 17.5214 122.034 18.1292 122.299 18.7976C122.565 19.4659 122.693 20.1811 122.675 20.9C122.693 21.6189 122.565 22.3341 122.299 23.0025C122.034 23.6709 121.635 24.2787 121.128 24.7893Z" fill="black"/>
<path d="M117.413 22.6891C118.375 22.6891 119.154 21.9105 119.154 20.95C119.154 19.9896 118.375 19.211 117.413 19.211C116.452 19.211 115.672 19.9896 115.672 20.95C115.672 21.9105 116.452 22.6891 117.413 22.6891Z" fill="black"/>
</svg>
